# xmcd
#
# Track frame offsets:
#	150
#	11702
#	23684
#	35760
#	47709
#	59137
#	74194
#	90047
#	105315
#	116644
#
# Disc length: 1731 seconds
#
# Revision: 1
# Processed by: cddbd v1.5.2PL0 Copyright (c) Steve Scherf et al.
# Submitted via: EasyCDDAExtractor 12.0.0.1
#
DISCID=8406c10a
DTITLE=ΕΛΕΥΘΕΡΙΑ ΑΡΒΑΝΙΤΑΚΗ - ΧΙΛΙΕΣ  ΒΡΑΔΙΕΣ - ΘΕΜΑ
DYEAR=2009
DGENRE=GREEK
TTITLE0=ΧΙΛΙΕΣ ΒΡΑΔΙΕΣ
TTITLE1=ΔΕΝ ΚΛΑΙΩ ΓΙΑ ΤΩΡΑ
TTITLE2=ΣΤΑΛΙΑ ΣΤΑΛΙΑ
TTITLE3=ΘΕΛΩ ΚΟΝΤΑ ΣΟΥ ΝΑ ΜΕΙΝΩ
TTITLE4=ΕΙΜΑΙ ΕΡΩΤΕΥΜΕΝΟΣ ΜΕ ΤΑ ΜΑΤΙΑ ΣΟΥ
TTITLE5=ΘΑ ΠΙΩ ΑΠΟΨΕ ΤΟ ΦΕΓΓΑΡΙ
TTITLE6=ΔΕ ΘΑ ΞΑΝΑΓΑΠΗΣΩ
TTITLE7=ΜΑΥΡΟ ΧΕΛΙΔΟΝΙ - ΤΑ ΛΑΝΟΤΡΑΓΟΥΔΑ
TTITLE8=ΤΟ ΠΑΠΛΩΜΑ
TTITLE9=ΤΟ ΞΕΡΩ ΠΙΑ ΔΕ Μ΄ΑΓΑΠΑΣ
EXTD=
EXTT0=
EXTT1=
EXTT2=
EXTT3=
EXTT4=
EXTT5=
EXTT6=
EXTT7=
EXTT8=
EXTT9=
PLAYORDER=
